<?xml version="1.0" encoding="UTF-8"?>
<svg width="700pt" height="700pt" version="1.1" viewBox="0 0 700 700" xmlns="http://www.w3.org/2000/svg" xmlns:xlink="http://www.w3.org/1999/xlink">
 <defs>
  <symbol id="e" overflow="visible">
   <path d="m48.609-2.9062c-2.5 1.3047-5.1094 2.2812-7.8281 2.9375-2.7188 0.66406-5.5547 1-8.5 1-8.8125 0-15.797-2.4609-20.953-7.3906-5.1484-4.9258-7.7188-11.602-7.7188-20.031 0-8.457 2.5703-15.148 7.7188-20.078 5.1562-4.9258 12.141-7.3906 20.953-7.3906 2.9453 0 5.7812 0.33594 8.5 1 2.7188 0.65625 5.3281 1.6367 7.8281 2.9375v10.953c-2.5312-1.7266-5.0273-2.9922-7.4844-3.7969-2.4492-0.80078-5.0312-1.2031-7.75-1.2031-4.8672 0-8.6953 1.5625-11.484 4.6875-2.7812 3.1172-4.1719 7.4141-4.1719 12.891 0 5.4492 1.3906 9.7344 4.1719 12.859 2.7891 3.1172 6.6172 4.6719 11.484 4.6719 2.7188 0 5.3008-0.39844 7.75-1.2031 2.457-0.80078 4.9531-2.0664 7.4844-3.7969z"/>
  </symbol>
  <symbol id="d" overflow="visible">
   <path d="m33.094-33.875v-21.25h12.75v55.125h-12.75v-5.7344c-1.75 2.3359-3.6797 4.0469-5.7812 5.1406-2.1055 1.082-4.5391 1.625-7.2969 1.625-4.8867 0-8.9023-1.9414-12.047-5.8281-3.1367-3.8828-4.7031-8.8906-4.7031-15.016 0-6.1133 1.5664-11.113 4.7031-15 3.1445-3.8828 7.1602-5.8281 12.047-5.8281 2.7383 0 5.1641 0.55469 7.2812 1.6562 2.1133 1.0938 4.0469 2.7969 5.7969 5.1094zm-8.3594 25.688c2.7188 0 4.7891-0.98828 6.2188-2.9688 1.4258-1.9883 2.1406-4.875 2.1406-8.6562 0-3.7695-0.71484-6.6445-2.1406-8.625-1.4297-1.9883-3.5-2.9844-6.2188-2.9844-2.6992 0-4.7617 0.99609-6.1875 2.9844-1.4297 1.9805-2.1406 4.8555-2.1406 8.625 0 3.7812 0.71094 6.668 2.1406 8.6562 1.4258 1.9805 3.4883 2.9688 6.1875 2.9688z"/>
  </symbol>
  <symbol id="c" overflow="visible">
   <path d="m27.219-8.1875c2.707 0 4.7734-0.98828 6.2031-2.9688 1.4375-1.9883 2.1562-4.875 2.1562-8.6562 0-3.7695-0.71875-6.6445-2.1562-8.625-1.4297-1.9883-3.4961-2.9844-6.2031-2.9844-2.7188 0-4.8086 1-6.2656 3-1.4492 1.9922-2.1719 4.8594-2.1719 8.6094 0 3.7617 0.72266 6.6406 2.1719 8.6406 1.457 1.9922 3.5469 2.9844 6.2656 2.9844zm-8.4375-25.688c1.75-2.3125 3.6875-4.0156 5.8125-5.1094 2.125-1.1016 4.5664-1.6562 7.3281-1.6562 4.8828 0 8.8984 1.9453 12.047 5.8281 3.1445 3.8867 4.7188 8.8867 4.7188 15 0 6.125-1.5742 11.133-4.7188 15.016-3.1484 3.8867-7.1641 5.8281-12.047 5.8281-2.7617 0-5.2031-0.54688-7.3281-1.6406-2.125-1.1016-4.0625-2.8125-5.8125-5.125v5.7344h-12.688v-55.125h12.688z"/>
  </symbol>
  <symbol id="b" overflow="visible">
   <path d="m43.469-51.234v11.203c-2.9062-1.3008-5.7422-2.2812-8.5-2.9375-2.7617-0.66406-5.3711-1-7.8281-1-3.2617 0-5.6719 0.44922-7.2344 1.3438-1.5547 0.89844-2.3281 2.293-2.3281 4.1875 0 1.418 0.52344 2.5234 1.5781 3.3125 1.0508 0.79297 2.957 1.4688 5.7188 2.0312l5.8125 1.1719c5.875 1.1797 10.051 2.9766 12.531 5.3906 2.4883 2.4062 3.7344 5.8281 3.7344 10.266 0 5.8359-1.7344 10.18-5.2031 13.031-3.4609 2.8438-8.7422 4.2656-15.844 4.2656-3.3555 0-6.7266-0.32422-10.109-0.96875-3.375-0.63281-6.75-1.5781-10.125-2.8281v-11.516c3.375 1.8047 6.6406 3.1562 9.7969 4.0625s6.1953 1.3594 9.125 1.3594c2.9688 0 5.2422-0.49219 6.8281-1.4844 1.582-0.98828 2.375-2.4062 2.375-4.25 0-1.6562-0.53906-2.9297-1.6094-3.8281-1.0742-0.89453-3.2148-1.6953-6.4219-2.4062l-5.2812-1.1719c-5.293-1.1328-9.1641-2.9414-11.609-5.4219-2.4492-2.4766-3.6719-5.8203-3.6719-10.031 0-5.2695 1.6953-9.3203 5.0938-12.156 3.4062-2.832 8.3008-4.25 14.688-4.25 2.9062 0 5.8906 0.21875 8.9531 0.65625 3.0703 0.4375 6.25 1.0938 9.5312 1.9688z"/>
  </symbol>
  <symbol id="a" overflow="visible">
   <path d="m6.0938-39.688h12.688v39.688h-12.688zm0-15.438h12.688v10.344h-12.688z"/>
  </symbol>
 </defs>
 <g>
  <path d="m171.99 209.56c-24.621 19.316-50.199 37.383-76.633 54.137-24.965 31.785-50.363 62.41-72.57 87.809l14.516 27.285c6.2422-6.9648 12.918-14.516 20.176-22.785 36.137-42.82 78.227-96.375 114.51-146.45z"/>
  <path d="m136.72 355.86c49.688-57.996 96.43-118.45 140.06-181.13 21.695-29.484 40.688-60.863 56.75-93.758-17.711 8.4336-34.289 19.066-49.348 31.641-54.863 87.809-180.84 246.73-234.11 292.74l5.3711 10.594h-0.003906c2.5898 5.0508 6.3789 9.3867 11.031 12.629 25.215-22.434 48.695-46.742 70.246-72.715z"/>
  <path d="m357.04 174.73c48.621-70.246 61.973-100.58 63.137-116.11-10.133 0.46094-20.219 1.625-30.191 3.4844-12.918 55.008-235.12 340.06-277.36 354.72l0.003906-0.003906c-3.1289-0.56641-6.3555-0.09375-9.1875 1.3477-2.832 1.4414-5.1094 3.7734-6.4883 6.6367-1.0039 2.1797-1.4531 4.5703-1.3086 6.9648 1.3438-0.44141 2.6523-0.97656 3.9219-1.5938l10.16-5.5156h-0.003906c36.66-20.086 71.91-42.633 105.52-67.488l1.7422-2.0312v-0.003907c49.668-57.762 96.41-117.97 140.06-180.41z"/>
  <path d="m498.4 68.922-22.785-4.9336-5.6602-0.87109c-6.5312 26.27-59.07 103.34-117.42 178.95 18.98-15.711 40.344-28.301 63.281-37.301 7.2578-10.16 14.516-20.176 21.191-29.898 40.055-57.906 56.168-88.531 61.391-105.95z"/>
  <path d="m572.28 84.887-28.301-6.0977v0.003907c-21.379 39.234-45.633 76.832-72.57 112.48 11.805-1.3516 23.695-1.7422 35.559-1.1602l10.887-15.383v-0.003907c20.496-28.453 38.695-58.496 54.426-89.84z"/>
  <path d="m637.16 113.48c-6.2305-7.1836-13.832-13.055-22.352-17.273-20.676 34.289-43.055 67.52-67.055 99.566l30.188 6.5312c6.6758-9.4336 13.352-18.578 19.594-27.578 17.418-25.398 29.898-45.281 39.625-61.246z"/>
  <path d="m659.36 151.5c-12.773 18.578-27.285 38.75-42.672 59.215l30.48 6.6758c9.2891-12.773 18.289-25.254 26.707-37.445z"/>
  <path d="m84.617 449.18c-4.5781 0.011718-9.1289-0.67578-13.5-2.0312-12.637-3.8398-23.133-12.711-29.027-24.527l-37.445-73.293v-0.003906c-5.418-10.363-6.6133-22.422-3.3398-33.648 3.2734-11.23 10.762-20.754 20.902-26.582l13.207-7.1133c62.625-34.145 121.07-75.449 174.16-123.08l58.055-51.812c27.988-25.703 61.73-44.32 98.398-54.297s75.191-11.016 112.34-3.0312l124.09 26.996c25.207 5.8984 46.48 22.703 58.055 45.863l34.832 68.07v-0.003906c2.75 5.3984 3.9219 11.461 3.3828 17.492-0.53906 6.0352-2.7695 11.793-6.4297 16.617-3.3164 4.3711-7.8008 7.7148-12.941 9.6406-5.1367 1.9297-10.715 2.3594-16.086 1.2461l-124.09-26.996c-32.66-6.9922-66.52-6.0547-98.738 2.7344-32.223 8.7852-61.871 25.168-86.457 47.773l-58.055 51.812c-54.785 49.094-115.08 91.66-179.68 126.85l-10.16 5.5156h0.003906c-6.5703 3.6836-13.953 5.6797-21.48 5.8047zm343.98-375.76c-52.344 0.28906-102.72 19.992-141.37 55.297l-58.055 51.812v0.003906c-54.785 49.09-115.08 91.656-179.68 126.85l-13.207 7.1133c-3.4688 2.2188-5.9727 5.6562-7.0195 9.6367-1.0508 3.9766-0.56641 8.207 1.3594 11.844l37.445 73.293c2.2539 4.7383 6.3438 8.3555 11.32 10.016 4.2578 1.3359 8.875 0.86328 12.773-1.3047l10.16-5.5156h-0.003907c62.629-34.145 121.07-75.445 174.17-123.08l58.055-51.812c27.98-25.715 61.723-44.34 98.391-54.316 36.672-9.9766 75.199-11.008 112.35-3.0156l124.09 26.996c0.625-1.0781 0.625-2.4062 0-3.4844l-34.832-68.07v0.003906c-7.6172-15.457-21.711-26.73-38.461-30.77l-124.09-26.996c-14.219-3.0156-28.715-4.5273-43.25-4.5z"/>
  <path d="m75.906 533.36c-3.8477 0-7.5391-1.5273-10.262-4.25-2.7227-2.7227-4.25-6.4141-4.25-10.262v-87.086c0-5.1836 2.7656-9.9766 7.2539-12.566 4.4922-2.5938 10.023-2.5938 14.516 0 4.4922 2.5898 7.2578 7.3828 7.2578 12.566v66.473l536.14-193.47h-0.003906c12.883-3.9961 24.145-12.02 32.137-22.883 7.9922-10.867 12.293-24.004 12.277-37.492v-30.336c0-5.1836 2.7656-9.9766 7.2578-12.566 4.4883-2.5938 10.023-2.5938 14.512 0 4.4922 2.5898 7.2578 7.3828 7.2578 12.566v30.336c0.046875 19.559-6.1484 38.621-17.688 54.414-11.539 15.793-27.816 27.492-46.465 33.395l-555.01 200.29h0.003906c-1.582 0.57422-3.2539 0.87109-4.9375 0.87109z"/>
  <path d="m75.906 533.36c-2.8438-0.023437-5.6211-0.87891-7.9805-2.4688-39.852-24.07-65.223-66.285-67.781-112.77v-87.953c0-5.1875 2.7656-9.9766 7.2578-12.57 4.4922-2.5938 10.023-2.5938 14.512 0 4.4922 2.5938 7.2578 7.3828 7.2578 12.57v87.082c2.168 37.105 22.688 70.688 54.719 89.551 3.4531 2.3203 5.7461 6.0117 6.293 10.141 0.54688 4.125-0.70312 8.2852-3.4375 11.426-2.7305 3.1445-6.6758 4.9609-10.84 4.9922z"/>
  <use y="751.070312" xlink:href="#e"/>
  <use x="271.140625" y="751.070312" xlink:href="#d"/>
  <use x="348.351562" y="751.070312" xlink:href="#c"/>
  <use x="472.867187" y="751.070312" xlink:href="#b"/>
  <use x="525.132812" y="751.070312" xlink:href="#a"/>
 </g>
</svg>
