<?xml version="1.0" encoding="UTF-8"?>
<svg width="700pt" height="700pt" version="1.1" viewBox="0 0 700 700" xmlns="http://www.w3.org/2000/svg" xmlns:xlink="http://www.w3.org/1999/xlink">
 <defs>
  <symbol id="g" overflow="visible">
   <path d="m3.6562-0.21875c-0.1875 0.09375-0.38672 0.16797-0.59375 0.21875-0.19922 0.050781-0.40625 0.078125-0.625 0.078125-0.66797 0-1.1992-0.17969-1.5938-0.54688-0.38672-0.375-0.57812-0.87891-0.57812-1.5156 0-0.64453 0.19141-1.1484 0.57812-1.5156 0.39453-0.375 0.92578-0.5625 1.5938-0.5625 0.21875 0 0.42578 0.027344 0.625 0.078125 0.20703 0.054687 0.40625 0.125 0.59375 0.21875v0.82812c-0.1875-0.125-0.375-0.21875-0.5625-0.28125-0.17969-0.0625-0.37109-0.09375-0.57812-0.09375-0.36719 0-0.65625 0.12109-0.875 0.35938-0.21094 0.23047-0.3125 0.55469-0.3125 0.96875 0 0.40625 0.10156 0.73047 0.3125 0.96875 0.21875 0.23047 0.50781 0.34375 0.875 0.34375 0.20703 0 0.39844-0.023437 0.57812-0.078125 0.1875-0.0625 0.375-0.16016 0.5625-0.29688z"/>
  </symbol>
  <symbol id="d" overflow="visible">
   <path d="m2.6875-2.1719c-0.085938-0.039063-0.16797-0.070313-0.25-0.09375-0.085938-0.019531-0.16797-0.03125-0.25-0.03125-0.25 0-0.44531 0.085937-0.57812 0.25-0.125 0.15625-0.1875 0.38281-0.1875 0.67188v1.375h-0.96875v-2.9844h0.96875v0.48438c0.11328-0.19531 0.25-0.33594 0.40625-0.42188 0.16406-0.09375 0.35938-0.14062 0.57812-0.14062h0.10938c0.039063 0 0.09375 0.007812 0.15625 0.015625z"/>
  </symbol>
  <symbol id="c" overflow="visible">
   <path d="m3.4375-1.5v0.26562h-2.2344c0.03125 0.23047 0.11328 0.40234 0.25 0.51562 0.13281 0.10547 0.32812 0.15625 0.57812 0.15625 0.20703 0 0.41406-0.023438 0.625-0.078125 0.20703-0.0625 0.42188-0.15625 0.64062-0.28125v0.73438c-0.21875 0.09375-0.44531 0.16406-0.67188 0.20312-0.23047 0.039062-0.45312 0.0625-0.67188 0.0625-0.54297 0-0.96484-0.13281-1.2656-0.40625-0.30469-0.28125-0.45312-0.67188-0.45312-1.1719 0-0.47656 0.14453-0.85938 0.4375-1.1406 0.30078-0.28125 0.70703-0.42188 1.2188-0.42188 0.46875 0 0.84375 0.14062 1.125 0.42188s0.42188 0.66406 0.42188 1.1406zm-0.96875-0.32812c0-0.17578-0.058594-0.31641-0.17188-0.42188-0.10547-0.11328-0.24219-0.17188-0.40625-0.17188-0.1875 0-0.33984 0.054687-0.45312 0.15625-0.11719 0.10547-0.1875 0.25-0.21875 0.4375z"/>
  </symbol>
  <symbol id="b" overflow="visible">
   <path d="m1.7969-1.3438c-0.19922 0-0.35156 0.039062-0.45312 0.10938-0.09375 0.0625-0.14062 0.16406-0.14062 0.29688 0 0.11719 0.035156 0.21094 0.10938 0.28125 0.082031 0.0625 0.19531 0.09375 0.34375 0.09375 0.17578 0 0.32812-0.0625 0.45312-0.1875s0.1875-0.28516 0.1875-0.48438v-0.10938zm1.4688-0.35938v1.7031h-0.96875v-0.4375c-0.125 0.17969-0.27344 0.30859-0.4375 0.39062-0.15625 0.082031-0.35156 0.125-0.57812 0.125-0.3125 0-0.57031-0.085938-0.76562-0.26562-0.1875-0.1875-0.28125-0.42188-0.28125-0.70312 0-0.35156 0.11719-0.61328 0.35938-0.78125 0.23828-0.16406 0.61719-0.25 1.1406-0.25h0.5625v-0.0625c0-0.15625-0.0625-0.26562-0.1875-0.32812-0.11719-0.070312-0.29688-0.10938-0.54688-0.10938-0.21094 0-0.40234 0.023437-0.57812 0.0625-0.17969 0.042969-0.33984 0.10156-0.48438 0.17188v-0.71875c0.19531-0.050781 0.39844-0.085938 0.60938-0.10938 0.20703-0.03125 0.41406-0.046875 0.625-0.046875 0.53906 0 0.92969 0.10938 1.1719 0.32812 0.23828 0.21094 0.35938 0.55469 0.35938 1.0312z"/>
  </symbol>
  <symbol id="a" overflow="visible">
   <path d="m1.5-3.8438v0.85938h0.98438v0.67188h-0.98438v1.2812c0 0.13672 0.023438 0.23047 0.078125 0.28125 0.0625 0.042969 0.17578 0.0625 0.34375 0.0625h0.48438v0.6875h-0.8125c-0.38672 0-0.65625-0.078125-0.8125-0.23438s-0.23438-0.42188-0.23438-0.79688v-1.2812h-0.46875v-0.67188h0.46875v-0.85938z"/>
  </symbol>
  <symbol id="j" overflow="visible">
   <path d="m2.5-2.5469v-1.6094h0.95312v4.1562h-0.95312v-0.4375c-0.13672 0.17969-0.28125 0.30859-0.4375 0.39062-0.15625 0.082031-0.33984 0.125-0.54688 0.125-0.375 0-0.68359-0.14453-0.92188-0.4375-0.23047-0.28906-0.34375-0.67188-0.34375-1.1406 0-0.45703 0.11328-0.83203 0.34375-1.125 0.23828-0.28906 0.54688-0.4375 0.92188-0.4375 0.19531 0 0.375 0.042969 0.53125 0.125 0.16406 0.085938 0.31641 0.21484 0.45312 0.39062zm-0.64062 1.9375c0.20703 0 0.36328-0.070313 0.46875-0.21875 0.11328-0.15625 0.17188-0.37891 0.17188-0.67188 0-0.28125-0.058594-0.49219-0.17188-0.64062-0.10547-0.15625-0.26172-0.23438-0.46875-0.23438-0.19922 0-0.35547 0.078125-0.46875 0.23438-0.10547 0.14844-0.15625 0.35938-0.15625 0.64062 0 0.29297 0.050781 0.51562 0.15625 0.67188 0.11328 0.14844 0.26953 0.21875 0.46875 0.21875z"/>
  </symbol>
  <symbol id="i" overflow="visible">
   <path d="m2.0469-0.60938c0.20703 0 0.36328-0.070313 0.46875-0.21875 0.11328-0.15625 0.17188-0.37891 0.17188-0.67188 0-0.28125-0.058594-0.49219-0.17188-0.64062-0.10547-0.15625-0.26172-0.23438-0.46875-0.23438-0.19922 0-0.35547 0.078125-0.46875 0.23438-0.10547 0.14844-0.15625 0.35938-0.15625 0.64062 0 0.29297 0.050781 0.51562 0.15625 0.67188 0.11328 0.14844 0.26953 0.21875 0.46875 0.21875zm-0.625-1.9375c0.125-0.17578 0.26562-0.30469 0.42188-0.39062 0.16406-0.082031 0.35156-0.125 0.5625-0.125 0.36328 0 0.66406 0.14844 0.90625 0.4375 0.23828 0.29297 0.35938 0.66797 0.35938 1.125 0 0.46875-0.12109 0.85156-0.35938 1.1406-0.24219 0.29297-0.54297 0.4375-0.90625 0.4375-0.21094 0-0.39844-0.042969-0.5625-0.125-0.15625-0.082031-0.29688-0.21094-0.42188-0.39062v0.4375h-0.96875v-4.1562h0.96875z"/>
  </symbol>
  <symbol id="h" overflow="visible">
   <path d="m0.0625-2.9844h0.95312l0.8125 2.0156 0.6875-2.0156h0.95312l-1.2656 3.2656c-0.125 0.33203-0.27344 0.56641-0.4375 0.70312-0.16797 0.13281-0.39062 0.20312-0.67188 0.20312h-0.54688v-0.64062h0.29688c0.16406 0 0.28516-0.027344 0.35938-0.078125 0.070313-0.054688 0.12891-0.14062 0.17188-0.26562l0.03125-0.09375z"/>
  </symbol>
  <symbol id="f" overflow="visible">
   <path d="m3.4688-1.8281v1.8281h-0.96875v-1.3906c0-0.25781-0.007812-0.4375-0.015625-0.53125-0.011719-0.10156-0.03125-0.17578-0.0625-0.21875-0.03125-0.0625-0.085937-0.10938-0.15625-0.14062-0.0625-0.039062-0.13281-0.0625-0.20312-0.0625-0.21094 0-0.37109 0.078125-0.48438 0.23438-0.10547 0.15625-0.15625 0.37109-0.15625 0.64062v1.4688h-0.96875v-4.1562h0.96875v1.6094c0.13281-0.17578 0.28516-0.30469 0.45312-0.39062 0.16406-0.082031 0.34375-0.125 0.53125-0.125 0.34375 0 0.60156 0.10938 0.78125 0.32812 0.1875 0.21094 0.28125 0.51172 0.28125 0.90625z"/>
  </symbol>
  <symbol id="s" overflow="visible">
   <path d="m1.4219-0.4375v1.5781h-0.96875v-4.125h0.96875v0.4375c0.125-0.17578 0.26562-0.30469 0.42188-0.39062 0.16406-0.082031 0.35156-0.125 0.5625-0.125 0.36328 0 0.66406 0.14844 0.90625 0.4375 0.23828 0.29297 0.35938 0.66797 0.35938 1.125 0 0.46875-0.12109 0.85156-0.35938 1.1406-0.24219 0.29297-0.54297 0.4375-0.90625 0.4375-0.21094 0-0.39844-0.042969-0.5625-0.125-0.15625-0.082031-0.29688-0.21094-0.42188-0.39062zm0.625-1.9375c-0.19922 0-0.35547 0.078125-0.46875 0.23438-0.10547 0.14844-0.15625 0.35938-0.15625 0.64062 0 0.29297 0.050781 0.51562 0.15625 0.67188 0.11328 0.14844 0.26953 0.21875 0.46875 0.21875 0.20703 0 0.36328-0.070313 0.46875-0.21875 0.11328-0.15625 0.17188-0.37891 0.17188-0.67188 0-0.28125-0.058594-0.49219-0.17188-0.64062-0.10547-0.15625-0.26172-0.23438-0.46875-0.23438z"/>
  </symbol>
  <symbol id="r" overflow="visible">
   <path d="m2.4219-4.1562v0.625h-0.51562c-0.13672 0-0.23438 0.027344-0.29688 0.078125-0.054687 0.054687-0.078125 0.13672-0.078125 0.25v0.21875h0.82812v0.67188h-0.82812v2.3125h-0.95312v-2.3125h-0.46875v-0.67188h0.46875v-0.21875c0-0.32031 0.085937-0.5625 0.26562-0.71875 0.1875-0.15625 0.47266-0.23438 0.85938-0.23438z"/>
  </symbol>
  <symbol id="e" overflow="visible">
   <path d="m1.875-2.375c-0.21094 0-0.37109 0.078125-0.48438 0.23438-0.10547 0.14844-0.15625 0.35938-0.15625 0.64062 0 0.29297 0.050781 0.51562 0.15625 0.67188 0.11328 0.14844 0.27344 0.21875 0.48438 0.21875 0.20703 0 0.36719-0.070313 0.48438-0.21875 0.11328-0.15625 0.17188-0.37891 0.17188-0.67188 0-0.28125-0.058594-0.49219-0.17188-0.64062-0.11719-0.15625-0.27734-0.23438-0.48438-0.23438zm0-0.6875c0.51953 0 0.92188 0.14062 1.2031 0.42188 0.28906 0.27344 0.4375 0.65234 0.4375 1.1406 0 0.5-0.14844 0.89062-0.4375 1.1719-0.28125 0.27344-0.68359 0.40625-1.2031 0.40625-0.51172 0-0.91406-0.13281-1.2031-0.40625-0.29297-0.28125-0.4375-0.67188-0.4375-1.1719 0-0.48828 0.14453-0.86719 0.4375-1.1406 0.28906-0.28125 0.69141-0.42188 1.2031-0.42188z"/>
  </symbol>
  <symbol id="q" overflow="visible">
   <path d="m3.2344-2.5c0.11328-0.17578 0.25391-0.3125 0.42188-0.40625 0.16406-0.10156 0.35156-0.15625 0.5625-0.15625 0.33203 0 0.58594 0.10938 0.76562 0.32812 0.1875 0.21094 0.28125 0.51172 0.28125 0.90625v1.8281h-0.96875v-1.5625c0.007813-0.019531 0.015625-0.039062 0.015625-0.0625v-0.10938c0-0.21875-0.03125-0.375-0.09375-0.46875s-0.16406-0.14062-0.29688-0.14062c-0.1875 0-0.33594 0.078125-0.4375 0.23438-0.09375 0.14844-0.14062 0.35938-0.14062 0.64062v1.4688h-0.96875v-1.5625c0-0.33203-0.03125-0.54688-0.09375-0.64062-0.054688-0.09375-0.15234-0.14062-0.29688-0.14062-0.17969 0-0.32031 0.078125-0.42188 0.23438-0.09375 0.14844-0.14062 0.35938-0.14062 0.64062v1.4688h-0.96875v-2.9844h0.96875v0.4375c0.11328-0.17578 0.24219-0.30469 0.39062-0.39062 0.15625-0.082031 0.32812-0.125 0.51562-0.125 0.20703 0 0.39062 0.054688 0.54688 0.15625 0.15625 0.09375 0.27344 0.23047 0.35938 0.40625z"/>
  </symbol>
  <symbol id="p" overflow="visible">
   <path d="m0.5-3.9844h1.1562l1.4375 2.7344v-2.7344h0.98438v3.9844h-1.1562l-1.4375-2.7344v2.7344h-0.98438z"/>
  </symbol>
  <symbol id="o" overflow="visible">
   <path d="m0.42188-1.1719v-1.8125h0.96875v0.29688 0.60938 0.48438c0 0.24219 0.003906 0.41797 0.015625 0.53125 0.007812 0.10547 0.03125 0.17969 0.0625 0.21875 0.039062 0.0625 0.09375 0.11719 0.15625 0.15625 0.0625 0.03125 0.13281 0.046875 0.21875 0.046875 0.19531 0 0.35156-0.078125 0.46875-0.23438 0.11328-0.15625 0.17188-0.36719 0.17188-0.64062v-1.4688h0.95312v2.9844h-0.95312v-0.4375c-0.14844 0.17969-0.30469 0.30859-0.46875 0.39062-0.15625 0.082031-0.33594 0.125-0.53125 0.125-0.34375 0-0.60938-0.10156-0.79688-0.3125-0.17969-0.21875-0.26562-0.53125-0.26562-0.9375z"/>
  </symbol>
  <symbol id="n" overflow="visible">
   <path d="m3.4688-1.8281v1.8281h-0.96875v-1.3906c0-0.25781-0.007812-0.4375-0.015625-0.53125-0.011719-0.10156-0.03125-0.17578-0.0625-0.21875-0.03125-0.0625-0.085937-0.10938-0.15625-0.14062-0.0625-0.039062-0.13281-0.0625-0.20312-0.0625-0.21094 0-0.37109 0.078125-0.48438 0.23438-0.10547 0.15625-0.15625 0.37109-0.15625 0.64062v1.4688h-0.96875v-2.9844h0.96875v0.4375c0.13281-0.17578 0.28516-0.30469 0.45312-0.39062 0.16406-0.082031 0.34375-0.125 0.53125-0.125 0.34375 0 0.60156 0.10938 0.78125 0.32812 0.1875 0.21094 0.28125 0.51172 0.28125 0.90625z"/>
  </symbol>
  <symbol id="m" overflow="visible">
   <path d="m0.5-3.9844h1.7031c0.50781 0 0.89844 0.11719 1.1719 0.34375 0.26953 0.21875 0.40625 0.53906 0.40625 0.95312 0 0.41797-0.13672 0.74219-0.40625 0.96875-0.27344 0.21875-0.66406 0.32812-1.1719 0.32812h-0.67188v1.3906h-1.0312zm1.0312 0.75v1.1094h0.5625c0.19531 0 0.34766-0.046875 0.45312-0.14062 0.11328-0.10156 0.17188-0.24219 0.17188-0.42188 0-0.17578-0.058594-0.3125-0.17188-0.40625-0.10547-0.09375-0.25781-0.14062-0.45312-0.14062z"/>
  </symbol>
  <symbol id="l" overflow="visible">
   <path d="m0.45312-2.9844h0.96875v2.9375c0 0.39453-0.10156 0.69531-0.29688 0.90625-0.1875 0.21875-0.46484 0.32812-0.82812 0.32812h-0.48438v-0.64062h0.17188c0.17578 0 0.29688-0.042969 0.35938-0.125 0.070312-0.074219 0.10938-0.23047 0.10938-0.46875zm0-1.1719h0.96875v0.78125h-0.96875z"/>
  </symbol>
  <symbol id="k" overflow="visible">
   <path d="m2.875-2.8906v0.76562c-0.125-0.082031-0.25781-0.14453-0.39062-0.1875-0.13672-0.039062-0.27344-0.0625-0.40625-0.0625-0.27344 0-0.48047 0.078125-0.625 0.23438-0.14844 0.15625-0.21875 0.37109-0.21875 0.64062 0 0.28125 0.070313 0.5 0.21875 0.65625 0.14453 0.15625 0.35156 0.23438 0.625 0.23438 0.14453 0 0.28516-0.019531 0.42188-0.0625 0.13281-0.039063 0.25781-0.10938 0.375-0.20312v0.78125c-0.14844 0.0625-0.29688 0.10156-0.45312 0.125-0.15625 0.03125-0.3125 0.046875-0.46875 0.046875-0.54297 0-0.96484-0.13281-1.2656-0.40625-0.30469-0.28125-0.45312-0.67188-0.45312-1.1719 0-0.48828 0.14844-0.86719 0.45312-1.1406 0.30078-0.28125 0.72266-0.42188 1.2656-0.42188 0.15625 0 0.3125 0.015625 0.46875 0.046875 0.15625 0.023437 0.30469 0.0625 0.45312 0.125z"/>
  </symbol>
 </defs>
 <g>
  <path d="m361.41 45.598c-14.879-14.867-35.059-23.215-56.09-23.207-21.035 0.003906-41.207 8.3672-56.078 23.242-14.871 14.875-23.227 35.051-23.227 56.086s8.3555 41.207 23.227 56.082c14.871 14.879 35.043 23.238 56.078 23.246 21.031 0.007813 41.211-8.3438 56.09-23.207 14.863-14.898 23.211-35.082 23.211-56.121 0-21.043-8.3477-41.227-23.211-56.121zm-64.809 88.672-20.621 20.621c-1.7109 1.7109-4.4805 1.7109-6.1875 0l-17.68-17.676c-0.82031-0.82031-1.2812-1.9336-1.2812-3.0938s0.46094-2.2734 1.2812-3.0938l20.621-20.621c3.1641-3.1641 7.457-4.9414 11.93-4.9414 4.4766 0 8.7695 1.7773 11.934 4.9414 3.1641 3.168 4.9414 7.457 4.9414 11.934 0 4.4766-1.7773 8.7656-4.9414 11.93zm0-41.242c-3.1641 3.1641-7.457 4.9414-11.934 4.9414-4.4727 0-8.7656-1.7773-11.93-4.9414l-20.625-20.621c-0.82031-0.82031-1.2812-1.9336-1.2812-3.0938s0.46094-2.2734 1.2812-3.0938l17.676-17.676c1.707-1.707 4.4766-1.707 6.1836 0l20.621 20.621h0.003906c3.1641 3.1641 4.9414 7.457 4.9414 11.93 0 4.4766-1.7773 8.7695-4.9414 11.934zm61.863 44.188-17.676 17.676c-1.707 1.707-4.4766 1.707-6.1875 0l-20.621-20.621c-3.1641-3.1641-4.9414-7.457-4.9414-11.93 0-4.4766 1.7773-8.7695 4.9414-11.934 3.1641-3.1641 7.457-4.9414 11.934-4.9414 4.4727 0 8.7656 1.7773 11.93 4.9414l20.621 20.625c1.707 1.707 1.707 4.4766 0 6.1836zm0-64.809-20.621 20.621c-3.1641 3.1641-7.457 4.9414-11.93 4.9414-4.4766 0-8.7695-1.7773-11.934-4.9414-3.1641-3.1641-4.9414-7.457-4.9414-11.93 0-4.4766 1.7773-8.7656 4.9414-11.934l20.621-20.621c1.7109-1.707 4.4805-1.707 6.1875 0l17.676 17.676c0.82031 0.82031 1.2812 1.9336 1.2812 3.0938s-0.46094 2.2734-1.2812 3.0938z"/>
  <path d="m585.3 269.49c-14.883-14.867-35.059-23.215-56.094-23.211-21.035 0.007812-41.207 8.3672-56.078 23.246-14.871 14.875-23.227 35.047-23.227 56.082 0 21.035 8.3555 41.211 23.227 56.086s35.043 23.238 56.078 23.242c21.035 0.007812 41.211-8.3398 56.094-23.207 14.859-14.895 23.207-35.078 23.207-56.121 0-21.039-8.3477-41.223-23.207-56.117zm-70.703 100.46v-0.003906c-4.625 4.625-11.137 6.8359-17.621 5.9805s-12.203-4.6758-15.473-10.34c-3.2695-5.6641-3.7188-12.527-1.2148-18.57s7.6719-10.574 13.992-12.266c6.3164-1.6953 13.062-0.35156 18.25 3.6289 5.1875 3.9844 8.2305 10.152 8.2305 16.691 0.011719 5.582-2.207 10.941-6.1641 14.875zm0-58.918v-0.003906c-4.625 4.625-11.137 6.8359-17.621 5.9805-6.4844-0.85547-12.203-4.6758-15.473-10.34-3.2695-5.6641-3.7188-12.527-1.2148-18.57s7.6719-10.574 13.992-12.27c6.3164-1.6914 13.062-0.34766 18.25 3.6328 5.1875 3.9844 8.2305 10.152 8.2305 16.691 0.011719 5.582-2.207 10.941-6.1641 14.875zm58.918 58.918v-0.003906c-4.625 4.625-11.137 6.8359-17.625 5.9844-6.4844-0.85547-12.203-4.6758-15.473-10.34-3.2695-5.668-3.7188-12.531-1.2148-18.574 2.5-6.043 7.6719-10.578 13.992-12.27 6.3164-1.6914 13.062-0.35156 18.254 3.6328 5.1875 3.9805 8.2305 10.152 8.2305 16.691 0.011719 5.582-2.207 10.941-6.1641 14.875zm0-58.918v-0.003906c-4.625 4.625-11.137 6.8359-17.625 5.9844-6.4844-0.85547-12.203-4.6758-15.473-10.34-3.2695-5.668-3.7188-12.531-1.2148-18.574 2.5-6.043 7.6719-10.578 13.992-12.27 6.3164-1.6914 13.062-0.35156 18.254 3.6328 5.1875 3.9805 8.2305 10.152 8.2305 16.691 0.011719 5.582-2.207 10.938-6.1641 14.875z"/>
  <path d="m595.47 256.09-220.66-220.66c-16.121-16.074-37.316-26.055-59.977-28.242-22.66-2.1836-45.375 3.5664-64.266 16.266l-131.37 88.605c-14.281 9.625-23.91 24.758-26.578 41.77s1.8672 34.367 12.52 47.898c10.652 13.531 26.453 22.02 43.617 23.422v12.125l-13.496 2.7266c-10.797 2.1797-19.926 9.3398-24.609 19.309-4.6875 9.9688-4.375 21.57 0.83984 31.27l32.355 60.23 21.418 78.531-72.367 86.844 0.015625 0.011718-0.003906 0.003907c-0.66016 0.77734-1.0234 1.7656-1.0273 2.7852v14.766c0 1.1602 0.46094 2.2734 1.2812 3.0938s1.9336 1.2812 3.0938 1.2812h66.445c1.9297 0 3.6289-1.2617 4.1875-3.1055 0.55859-1.8477-0.15625-3.8398-1.7617-4.9102l-17.707-11.805 48.355-48.355h-0.003906c14.625-14.531 20.672-35.605 15.969-55.68l-5.7422-24.895h12.867l42.816 35.684v108.69c0 1.1602 0.46094 2.2734 1.2812 3.0938 0.82422 0.82031 1.9336 1.2812 3.0938 1.2812h66.449c1.9297 0 3.6289-1.2617 4.1875-3.1055 0.55859-1.8477-0.15625-3.8398-1.7617-4.9102l-20.199-13.465v-86.953c-0.007812-19.496-9.5195-37.762-25.484-48.945l-48.871-34.211-5.5781-22.234 76.762-16.812v-0.003906c2.3008-0.50391 4.3047-1.918 5.5508-3.918 1.25-2 1.6367-4.418 1.0781-6.707l-3.3594-13.762v0.003906c9.4102-0.75391 18.367-4.375 25.656-10.375l17.68 17.684 0.003906-0.003906c-9.8086 11.883-13.027 27.883-8.5664 42.629 4.457 14.75 15.996 26.289 30.746 30.746 14.746 4.4609 30.746 1.2422 42.625-8.5664l3.0195 3.0195-19.488 107.8h0.003906c-3.2695 18.059 1.6367 36.633 13.395 50.723 11.758 14.09 29.156 22.242 47.508 22.258 1.9961 0 3.9961-0.097656 6.0078-0.28906v0.003907c18.422-1.7461 35.094-11.66 45.418-27.016l88.594-131.38v-0.003907c12.707-18.887 18.461-41.602 16.277-64.262-2.1797-22.66-12.16-43.859-28.234-59.977zm-444.92 88.711-31.355-58.367c-3.9023-7.2617-4.1367-15.945-0.62891-23.406s10.34-12.824 18.422-14.453l11.824-2.3867c0.65625 6.9688 6.668 12.195 13.664 11.879 6.9922-0.31641 12.504-6.0703 12.527-13.07v-4.1094l59.957-12.113 5.6328 21.449-27.215 6.4062c-1.1406 0.26953-2.1289 0.98438-2.7383 1.9844s-0.78906 2.2031-0.50391 3.3398l6.5312 26.043-17.719 4.1445-52.535-33.336v-0.003906c-2.0391-1.2656-4.7188-0.65625-6.0078 1.3711-1.2852 2.0273-0.69922 4.7148 1.3164 6.0195l11.23 7.1289-11.68 20.016-7.6875-4.8594 0.003907-0.003907c-0.98047-0.62109-2.168-0.82422-3.3008-0.57031-1.1328 0.25391-2.1172 0.94922-2.7383 1.9297-1.2891 2.043-0.67969 4.7461 1.3633 6.0391l43.945 27.781h-0.003907c7.6641 4.8672 16.551 7.457 25.629 7.4609 3.4922-0.003907 6.9727-0.38281 10.383-1.1328l17.379-3.8047 4.6719 18.633zm5.4961-130.33h-0.003907c-0.80078-0.71875-1.8398-1.1133-2.9141-1.1133-0.16406 0-0.32422 0.007813-0.48828 0.027344-0.95312 0.10938-1.9062-0.17969-2.6406-0.79688-0.73047-0.61719-1.1797-1.5078-1.2344-2.4648-0.054688-0.95703 0.28906-1.8906 0.94531-2.5898 0.65625-0.69531 1.5742-1.0898 2.5312-1.0898 0.14062 0.003907 0.28125 0.011719 0.42188 0.03125 0.81641 0.085938 1.5703 0.47266 2.1172 1.0859 0.80469 0.89453 1.9375 1.418 3.1406 1.4531 1.1992 0.03125 2.3633-0.42969 3.2109-1.2812 0.085938-0.085937 0.16016-0.16797 0.23438-0.25 0.023438-0.023437 0.046875-0.050781 0.070313-0.078125 2.1055-2.3828 3.5859-5.25 4.3125-8.3438h9.668v19.141c0.015626 3.2148-2.3164 5.9609-5.4883 6.4648-2.1172 0.34375-3.6758 2.1719-3.6758 4.3203v16.012c0 2.418-1.957 4.375-4.375 4.375s-4.375-1.957-4.375-4.375v-27.266c0-1.2461-0.53125-2.4336-1.4609-3.2617zm109.63 29.566c-1.4219 0.51953-2.8711 0.95313-4.3438 1.3047l-12.227 2.8789-5.5625-21.18 19.816-4.0039h0.007812c1.1641-0.23437 2.1836-0.9375 2.8242-1.9414l8.8203-13.852 0.67188 0.67188-0.003907 0.003906c-8.3047 10.074-11.941 23.203-10.004 36.117zm10.953 23.602c-1.1914 0.55078-2.1914 1.4453-2.8672 2.5664l-3.1094 5.1641-45.465 10.641-5.4844-21.871 43.641-10.27c1.5-0.35547 2.9844-0.78906 4.4453-1.2852h-0.003906c1.9531 5.5391 4.9531 10.652 8.8438 15.055zm-16.816-52.812-83.836 16.938c4.1836-2.1797 7.1172-6.1836 7.9414-10.828l81.375-14.719zm-52.812 106.6c-10.121 2.2422-20.715 0.37891-29.465-5.1797l-28.852-18.238 11.672-19.996 35.461 22.504-0.003906-0.003906c0.99219 0.62891 2.1992 0.83594 3.3438 0.56641l75.289-17.621-0.003906 0.003906c1.1523-0.26953 2.1445-0.99219 2.7539-2.0039l2.3867-3.9648 1.3281 1.7695c1.0391 1.3867 2.8047 2.0273 4.4961 1.6328l18.805-4.4023 5.4805 22.438zm124.95-63.438c-7.4297 7.3711-18.223 10.234-28.328 7.5117-10.105-2.7227-18-10.617-20.723-20.723-2.7227-10.105 0.14062-20.895 7.5117-28.324 7.4219-7.4219 18.238-10.32 28.375-7.6055 10.137 2.7188 18.055 10.637 20.77 20.773 2.7188 10.137-0.17969 20.953-7.6016 28.375zm82.484 82.492c-7.4297 7.3711-18.223 10.234-28.328 7.5117s-18-10.617-20.723-20.723c-2.7188-10.105 0.14063-20.898 7.5117-28.328 5.5-5.543 12.984-8.668 20.793-8.6836s15.305 3.082 20.828 8.6055c5.5195 5.5195 8.6172 13.016 8.6016 20.824-0.015626 7.8086-3.1406 15.293-8.6836 20.793zm185.74 34.949-88.594 131.38v0.003906c-9.1719 13.602-24.109 22.215-40.477 23.336-16.371 1.1211-32.34-5.3711-43.285-17.598-10.941-12.227-15.629-28.816-12.707-44.965l19.895-110.05h0.003907c0.25391-1.4102-0.19922-2.8594-1.2148-3.8711l-4.6367-4.6367v-0.003906c9.8086-11.879 13.027-27.879 8.5703-42.629s-16-26.289-30.746-30.75c-14.75-4.457-30.75-1.2383-42.633 8.5742l-17.68-17.68v-0.003907c9.8125-11.879 13.027-27.879 8.5703-42.629-4.457-14.75-15.996-26.289-30.746-30.746-14.75-4.4609-30.75-1.2422-42.629 8.5703l-4.6484-4.6484h-0.003906c-1.0117-1.0156-2.4609-1.4688-3.8711-1.2109l-89.18 16.129v-13.16c3.5586-0.61719 6.7812-2.4727 9.1055-5.2305 2.3242-2.7617 3.6016-6.2539 3.6055-9.8633v-6.5625c0-1.1602-0.46094-2.2734-1.2812-3.0938s-1.9336-1.2812-3.0938-1.2812h-35c-4.6406 0.003906-9.0859 1.8516-12.367 5.1328s-5.1289 7.7266-5.1328 12.367v19.621c0 1.7852 0.39453 3.5469 1.1562 5.1641-13.418-3.293-25.027-11.672-32.375-23.367-7.3477-11.695-9.8633-25.789-7.0078-39.305 2.8555-13.516 10.855-25.391 22.309-33.113l131.37-88.605c17.207-11.566 37.898-16.801 58.535-14.812s39.945 11.082 54.629 25.723l220.66 220.66c14.641 14.68 23.73 33.988 25.715 54.625 1.9883 20.637-3.25 41.324-14.82 58.527z"/>
  <path d="m379.08 305.13c-3.8672 3.8672-6.0391 9.1133-6.0391 14.582s2.1719 10.715 6.0391 14.582c3.8672 3.8672 9.1133 6.043 14.582 6.043s10.715-2.1758 14.582-6.043c3.8672-3.8672 6.0391-9.1133 6.0391-14.582s-2.1719-10.715-6.0391-14.582c-3.8711-3.8594-9.1133-6.0312-14.582-6.0312s-10.711 2.168-14.582 6.0312z"/>
  <path d="m296.6 222.65c-3.8672 3.8672-6.043 9.1133-6.043 14.582s2.1758 10.715 6.043 14.582c3.8672 3.8672 9.1133 6.0391 14.582 6.0391s10.715-2.1719 14.582-6.0391c3.8672-3.8672 6.0391-9.1133 6.0391-14.582s-2.1719-10.715-6.0391-14.582c-3.8711-3.8633-9.1133-6.0312-14.582-6.0312s-10.711 2.168-14.582 6.0312z"/>
  <path d="m520.48 204.68-94.27-94.27h0.003906c-0.82422-0.82031-1.9336-1.2812-3.0938-1.2812-1.1641 0-2.2734 0.46094-3.0938 1.2812l-70.699 70.703h-0.003906c-0.82031 0.82031-1.2812 1.9336-1.2812 3.0938s0.46094 2.2734 1.2812 3.0938l94.27 94.27c1.707 1.707 4.4766 1.707 6.1836 0l70.703-70.703c0.82031-0.82031 1.2812-1.9336 1.2812-3.0938 0-1.1602-0.46094-2.2734-1.2812-3.0938z"/>
  <use x="70" y="576.40625" xlink:href="#g"/>
  <use x="74.011719" y="576.40625" xlink:href="#d"/>
  <use x="76.710938" y="576.40625" xlink:href="#c"/>
  <use x="80.417969" y="576.40625" xlink:href="#b"/>
  <use x="84.109375" y="576.40625" xlink:href="#a"/>
  <use x="86.722656" y="576.40625" xlink:href="#c"/>
  <use x="90.433594" y="576.40625" xlink:href="#j"/>
  <use x="96.25" y="576.40625" xlink:href="#i"/>
  <use x="100.167969" y="576.40625" xlink:href="#h"/>
  <use x="105.636719" y="576.40625" xlink:href="#g"/>
  <use x="109.648438" y="576.40625" xlink:href="#f"/>
  <use x="113.542969" y="576.40625" xlink:href="#b"/>
  <use x="117.230469" y="576.40625" xlink:href="#a"/>
  <use x="119.847656" y="576.40625" xlink:href="#a"/>
  <use x="122.460938" y="576.40625" xlink:href="#b"/>
  <use x="126.152344" y="576.40625" xlink:href="#s"/>
  <use x="130.066406" y="576.40625" xlink:href="#b"/>
  <use x="133.753906" y="576.40625" xlink:href="#a"/>
  <use x="70" y="581.875" xlink:href="#r"/>
  <use x="72.378906" y="581.875" xlink:href="#d"/>
  <use x="75.078125" y="581.875" xlink:href="#e"/>
  <use x="78.832031" y="581.875" xlink:href="#q"/>
  <use x="86.4375" y="581.875" xlink:href="#a"/>
  <use x="89.050781" y="581.875" xlink:href="#f"/>
  <use x="92.941406" y="581.875" xlink:href="#c"/>
  <use x="98.554688" y="581.875" xlink:href="#p"/>
  <use x="103.132812" y="581.875" xlink:href="#e"/>
  <use x="106.890625" y="581.875" xlink:href="#o"/>
  <use x="110.785156" y="581.875" xlink:href="#n"/>
  <use x="116.582031" y="581.875" xlink:href="#m"/>
  <use x="120.589844" y="581.875" xlink:href="#d"/>
  <use x="123.285156" y="581.875" xlink:href="#e"/>
  <use x="127.042969" y="581.875" xlink:href="#l"/>
  <use x="128.917969" y="581.875" xlink:href="#c"/>
  <use x="132.625" y="581.875" xlink:href="#k"/>
  <use x="135.867188" y="581.875" xlink:href="#a"/>
 </g>
</svg>
